<svg xmlns="http://www.w3.org/2000/svg" viewBox="0 0 1024 1024" width="1024" height="1024">
  <defs>
    <linearGradient id="bg" x1="0" y1="0" x2="0" y2="1">
      <stop offset="0" stop-color="#CCEAFB"/><stop offset="1" stop-color="#9ED2F2"/>
    </linearGradient>
    <radialGradient id="dough" cx="0.4" cy="0.32" r="0.9">
      <stop offset="0" stop-color="#F6D08A"/><stop offset="0.55" stop-color="#E3A957"/><stop offset="1" stop-color="#C9883A"/>
    </radialGradient>
    <clipPath id="bunclip"><ellipse cx="512" cy="445" rx="190" ry="172"/></clipPath>
  </defs>
  <rect width="1024" height="1024" fill="url(#bg)"/>
  <ellipse cx="512" cy="628" rx="185" ry="30" fill="#3A6E94" opacity="0.18"/>
  <ellipse cx="512" cy="624" rx="150" ry="22" fill="#3A6E94" opacity="0.13"/>
  <ellipse cx="512" cy="445" rx="190" ry="172" fill="url(#dough)" stroke="#6E4523" stroke-width="14"/>
  <g clip-path="url(#bunclip)" fill="none" stroke-linecap="round" stroke-linejoin="round">
    <path d="M526.0 445.0 L526.6 446.2 L527.1 447.6 L527.5 449.0 L527.7 450.6 L527.8 452.2 L527.7 453.8 L527.5 455.5 L527.1 457.2 L526.5 458.9 L525.7 460.6 L524.7 462.3 L523.5 463.8 L522.2 465.4 L520.7 466.8 L519.0 468.1 L517.2 469.3 L515.2 470.3 L513.0 471.1 L510.8 471.8 L508.4 472.3 L506.0 472.5 L503.4 472.6 L500.9 472.4 L498.3 471.9 L495.7 471.2 L493.1 470.3 L490.6 469.1 L488.1 467.6 L485.8 466.0 L483.5 464.0 L481.4 461.9 L479.5 459.5 L477.7 456.9 L476.2 454.1 L474.9 451.1 L473.8 448.0 L473.0 444.7 L472.5 441.4 L472.3 437.9 L472.4 434.4 L472.8 430.8 L473.5 427.3 L474.6 423.7 L476.0 420.2 L477.7 416.8 L479.7 413.6 L482.1 410.4 L484.7 407.5 L487.7 404.7 L490.9 402.2 L494.4 399.9 L498.1 397.9 L502.0 396.2 L506.1 394.9 L510.3 393.9 L514.7 393.3 L519.2 393.0 L523.7 393.2 L528.3 393.7 L532.9 394.6 L537.4 396.0 L541.8 397.8 L546.1 399.9 L550.3 402.5 L554.2 405.4 L558.0 408.8 L561.5 412.4 L564.6 416.4 L567.5 420.7 L570.0 425.3 L572.1 430.2 L573.8 435.2 L575.1 440.4 L575.9 445.8 L576.3 451.3 L576.2 456.9 L575.6 462.5 L574.5 468.1 L573.0 473.6 L570.9 479.0 L568.3 484.3 L565.3 489.3 L561.8 494.2 L557.9 498.8 L553.6 503.0 L548.8 506.9 L543.7 510.4 L538.3 513.5 L532.6 516.2 L526.6 518.3 L520.4 520.0 L514.0 521.1 L507.5 521.6 L500.9 521.6 L494.3 521.1 L487.6 519.9 L481.1 518.2 L474.7 515.9 L468.4 513.1 L462.4 509.7 L456.6 505.7 L451.2 501.2 L446.1 496.3 L441.4 490.9 L437.1 485.0 L433.4 478.8 L430.2 472.2 L427.5 465.3 L425.4 458.1 L423.9 450.8 L423.1 443.3 L422.9 435.6 L423.3 428.0 L424.5 420.3 L426.2 412.7 L428.7 405.3 L431.8 398.0 L435.5 391.0 L439.9 384.2 L444.8 377.8 L450.3 371.8 L456.4 366.3 L462.9 361.3 L469.9 356.8 L477.3 352.9 L485.1 349.7 L493.2 347.1 L501.5 345.2 L510.0 343.9 L518.7 343.5 L527.4 343.7 L536.1 344.7 L544.7 346.5 L553.2 349.0 L561.6 352.3 L569.6 356.3 L577.4 361.0 L584.7 366.3 L591.7 372.3 L598.1 378.9 L603.9 386.1 L609.2 393.9 L613.8 402.0 L617.8 410.6 L621.0 419.6 L623.4 428.8 L625.0 438.3 L625.9 448.0 L625.9 457.7 L625.0 467.5 L623.4 477.2 L620.9 486.8 L617.5 496.2 L613.4 505.3 L608.4 514.1 L602.7 522.5 L596.3 530.4 L589.1 537.8 L581.4 544.5 L573.0 550.7 L564.1 556.1 L554.7 560.7 L544.9 564.6 L534.7 567.6 L524.3 569.8 L513.6 571.0 L502.9 571.4 L492.1 570.8 L481.3 569.3 L470.6 566.9 L460.1 563.6 L449.9 559.3 L440.1 554.2 L430.6 548.2 L421.7 541.4 L413.3 533.9 L405.6 525.6 L398.5 516.6 L392.3 507.0 L386.8 496.9 L382.2 486.2 L378.5 475.2 L375.8 463.8 L374.0 452.2 L373.2 440.5 L373.4 428.6 L374.7 416.7 L376.9 405.0 L380.2 393.4 L384.4 382.1 L389.7 371.1 L395.8 360.6 L402.9 350.6 L410.9 341.2 L419.6 332.4 L429.1 324.4 L439.3 317.2 L450.2 310.9 L461.6 305.5 L473.4 301.1 L485.7 297.7 L498.2 295.3 L511.0 294.0 L523.9 293.8 L536.8 294.7 L549.7 296.7 L562.4 299.8 L574.8 303.9 L586.9 309.2 L598.5 315.5 L609.6 322.8 L620.1 331.0 L629.9 340.2 L639.0 350.2 L647.1 361.0 L654.4 372.5 L660.7 384.6 L665.9 397.2 L670.1 410.3 L673.1 423.8 L675.0 437.5 L675.7 451.4 L675.3 465.4 L673.6 479.3 L670.7 493.2 L666.7 506.7 L661.5 519.9 L655.2 532.7 L647.7 545.0 L639.2 556.6 L629.8 567.5 L619.4 577.6 L608.1 586.8 L596.0 595.0 L583.2 602.2 L569.8 608.4 L555.9 613.3 L541.6 617.1 L526.9 619.7 L512.0 621.0" stroke="#9A6328" stroke-width="23" opacity="0.9"/>
    <path d="M540.0 445.0 L540.5 447.4 L540.7 449.9 L540.8 452.5 L540.6 455.1 L540.2 457.8 L539.5 460.4 L538.6 463.0 L537.4 465.6 L536.0 468.0 L534.3 470.4 L532.4 472.7 L530.3 474.8 L527.9 476.8 L525.4 478.6 L522.7 480.2 L519.8 481.5 L516.7 482.6 L513.5 483.5 L510.2 484.0 L506.8 484.3 L503.4 484.3 L499.9 484.0 L496.4 483.4 L492.9 482.4 L489.5 481.2 L486.2 479.6 L482.9 477.7 L479.8 475.5 L476.9 473.0 L474.2 470.3 L471.6 467.3 L469.4 464.0 L467.4 460.5 L465.6 456.8 L464.2 452.9 L463.2 448.8 L462.4 444.7 L462.0 440.4 L462.0 436.1 L462.4 431.7 L463.2 427.3 L464.3 423.0 L465.9 418.8 L467.8 414.6 L470.1 410.6 L472.7 406.7 L475.7 403.1 L479.1 399.7 L482.8 396.6 L486.7 393.7 L491.0 391.2 L495.4 389.1 L500.1 387.3 L505.0 385.9 L510.0 384.9 L515.2 384.4 L520.4 384.3 L525.6 384.7 L530.9 385.5 L536.1 386.8 L541.2 388.5 L546.2 390.7 L551.1 393.4 L555.7 396.4 L560.1 399.9 L564.2 403.8 L568.0 408.1 L571.5 412.7 L574.5 417.6 L577.2 422.9 L579.4 428.4 L581.1 434.0 L582.4 439.9 L583.2 445.9 L583.4 452.0 L583.1 458.2 L582.3 464.3 L581.0 470.4 L579.1 476.5 L576.7 482.3 L573.7 488.0 L570.3 493.5 L566.4 498.7 L562.0 503.6 L557.2 508.1 L552.0 512.2 L546.4 515.9 L540.4 519.1 L534.2 521.8 L527.7 524.0 L521.0 525.6 L514.1 526.6 L507.2 527.1 L500.1 527.0 L493.1 526.2 L486.0 524.9 L479.1 522.9 L472.3 520.4 L465.8 517.2 L459.4 513.5 L453.4 509.2 L447.7 504.4 L442.5 499.1 L437.6 493.3 L433.3 487.1 L429.5 480.5 L426.2 473.5 L423.5 466.2 L421.5 458.7 L420.0 451.0 L419.3 443.2 L419.2 435.2 L419.8 427.3 L421.0 419.3 L423.0 411.5 L425.7 403.8 L429.0 396.3 L432.9 389.1 L437.5 382.2 L442.7 375.7 L448.5 369.6 L454.8 364.0 L461.6 358.9 L468.8 354.4 L476.5 350.6 L484.4 347.3 L492.7 344.7 L501.3 342.9 L510.0 341.8 L518.8 341.4 L527.7 341.8 L536.5 342.9 L545.3 344.8 L553.9 347.5 L562.3 350.9 L570.5 355.0 L578.3 359.8 L585.6 365.3 L592.6 371.5 L599.0 378.2 L604.9 385.6 L610.1 393.4 L614.7 401.7 L618.5 410.4 L621.6 419.4 L624.0 428.8 L625.6 438.3 L626.3 448.0 L626.2 457.8 L625.3 467.5 L623.5 477.2 L620.9 486.8 L617.5 496.2 L613.3 505.2 L608.3 514.0 L602.5 522.3 L596.0 530.1 L588.8 537.4 L581.0 544.1 L572.7 550.1 L563.8 555.4 L554.4 559.9 L544.6 563.7 L534.5 566.6 L524.2 568.7 L513.6 569.8 L503.0 570.1 L492.3 569.4 L481.6 567.9 L471.1 565.4 L460.8 562.0 L450.8 557.8 L441.1 552.7 L431.8 546.7 L423.1 539.9 L414.9 532.4 L407.4 524.2 L400.5 515.3 L394.4 505.9 L389.1 495.9 L384.7 485.4 L381.1 474.6 L378.5 463.5 L376.9 452.1 L376.2 440.6 L376.4 429.0 L377.7 417.4 L380.0 405.9 L383.3 394.6 L387.5 383.6 L392.7 372.9 L398.7 362.7 L405.7 353.0 L413.5 343.9 L422.1 335.4 L431.4 327.7 L441.4 320.8 L451.9 314.7 L463.0 309.5 L474.6 305.3 L486.5 302.0 L498.7 299.8 L511.0 298.6 L523.5 298.5 L536.0 299.4 L548.5 301.4 L560.7 304.5 L572.7 308.6 L584.4 313.7 L595.6 319.9 L606.3 327.0 L616.4 335.0 L625.8 343.9 L634.5 353.6 L642.3 364.0 L649.2 375.1 L655.2 386.8 L660.2 399.0 L664.1 411.6 L667.0 424.6 L668.8 437.8 L669.4 451.2 L668.9 464.6 L667.2 478.0 L664.4 491.2 L660.5 504.2 L655.4 516.9 L649.3 529.1 L642.1 540.8 L633.9 551.9 L624.8 562.3 L614.8 571.9 L604.0 580.7 L592.4 588.5 L580.1 595.4 L567.3 601.2 L554.0 605.9 L540.3 609.4 L526.2 611.8 L512.0 613.0" stroke="#F8DCA6" stroke-width="8" opacity="0.6"/>
  </g>
  <g fill="#FFFBF4">
    <circle cx="500" cy="372" r="12"/><circle cx="600" cy="430" r="11"/>
    <circle cx="430" cy="430" r="11"/><circle cx="555" cy="540" r="11"/>
    <circle cx="452" cy="520" r="10"/>
  </g>
  <g fill="#5E3A1E">
    <circle cx="470" cy="400" r="4.5"/><circle cx="560" cy="400" r="4"/>
    <circle cx="600" cy="490" r="4.5"/><circle cx="440" cy="480" r="4"/>
    <circle cx="510" cy="560" r="4"/><circle cx="520" cy="445" r="4"/>
  </g>
  <path d="M 545 700 L 545 805 Q 545 862 496 862 Q 448 862 446 818" fill="none" stroke="#7A4F2A" stroke-width="60" stroke-linecap="round" stroke-linejoin="round"/>
  <path d="M 502 700 L 588 700" fill="none" stroke="#7A4F2A" stroke-width="60" stroke-linecap="round"/>
</svg>